<svg xmlns="http://www.w3.org/2000/svg" xmlns:xlink="http://www.w3.org/1999/xlink" width="30" height="30" viewBox="0 0 30 30"><defs><style>.a{fill:#4b3232;}.b{clip-path:url(#a);}</style><clipPath id="a"><rect class="a" width="30" height="30" transform="translate(687 1686)"/></clipPath></defs><g class="b" transform="translate(-687 -1686)"><path d="M26.625,7.688A7.216,7.216,0,0,1,31.594,20.1L20,31.8,8.2,19.891a7.193,7.193,0,1,1,11.8-7.766,7.162,7.162,0,0,1,6.617-4.438m0-1.2A8.342,8.342,0,0,0,20,9.75,8.39,8.39,0,1,0,7.336,20.727l11.813,11.93.852.859.852-.859,11.586-11.7A8.42,8.42,0,0,0,26.625,6.484Z" transform="translate(682 1681)"/></g></svg>