<svg xmlns="http://www.w3.org/2000/svg" xmlns:xlink="http://www.w3.org/1999/xlink" width="800" height="600" viewBox="0 0 800 600"><defs><style>.a{fill:#1c1674;}.b{clip-path:url(#a);}.c{opacity:0.7;}.d{fill:url(#b);}.e{fill:#bdbdbd;}.f,.r{opacity:0.1;}.g{fill:#535461;}.h{opacity:0.5;}.i{fill:#fff;}.j{fill:#6c63ff;}.k{fill:#e0e0e0;}.l{stroke:#6c63ff;stroke-width:1.647px;}.l,.m,.o,.q{stroke-miterlimit:10;}.m,.o,.q{fill:none;}.m{stroke:#fff;}.m,.q{stroke-width:0.824px;}.n{fill:url(#d);}.o,.q{stroke:#535461;}.o{stroke-width:2.471px;opacity:0.6;}.p{fill:#4db6ac;}.q{opacity:0.3;}.s{fill:url(#e);}.t{fill:#3ad29f;}.u{fill:#4d8af0;}.v{fill:#f55f44;}</style><clipPath id="a"><rect class="a" width="800" height="600" transform="translate(560 480)"/></clipPath><linearGradient id="b" x1="0.5" y1="1" x2="0.5" gradientUnits="objectBoundingBox"><stop offset="0" stop-color="gray" stop-opacity="0.251"/><stop offset="0.54" stop-color="gray" stop-opacity="0.122"/><stop offset="1" stop-color="gray" stop-opacity="0.102"/></linearGradient><linearGradient id="d" x1="0" y1="0.5" x2="1" y2="0.5" xlink:href="#b"/><linearGradient id="e" x1="0" y1="0.5" x2="1" y2="0.5" xlink:href="#b"/></defs><g class="b" transform="translate(-560 -480)"><g transform="translate(560 573.297)"><g class="c"><path class="d" d="M702.207,163.88H285.193A13.481,13.481,0,0,0,271.762,177.4V464.416a13.481,13.481,0,0,0,13.432,13.522H428.617v49.543h-6.539a6.835,6.835,0,0,0-6.811,6.86v9.94h13.349v5.88H558.783v-5.88h13.349v-9.94a6.835,6.835,0,0,0-6.811-6.86H559.17v-.428h-.42V477.938H702.207a13.481,13.481,0,0,0,13.432-13.522V177.4A13.481,13.481,0,0,0,702.207,163.88Z" transform="translate(-94.112 -163.88)"/></g><rect class="e" width="128.469" height="75.764" transform="translate(335.765 305.526)"/><g class="f"><path d="M432.405,476.818H556.073c1.491-6.481,2.685-10.706,2.685-10.706H429.466S430.791,470.32,432.405,476.818Z" transform="translate(-94.112 -163.88)"/></g><path class="g" d="M194.2,2.471H605.8a13.259,13.259,0,0,1,13.259,13.259V269.291H180.944V15.729A13.259,13.259,0,0,1,194.2,2.471Z"/><path class="e" d="M699.909,474.347h-411.6a13.259,13.259,0,0,1-13.259-13.259V433.171H713.168v27.917A13.259,13.259,0,0,1,699.909,474.347Z" transform="translate(-94.112 -163.88)"/><circle class="g" cx="7.412" cy="7.412" r="7.412" transform="translate(392.588 282.467)"/><path class="e" d="M329.317,359.055H470.683a6.728,6.728,0,0,1,6.728,6.728v9.742H322.589v-9.742A6.728,6.728,0,0,1,329.317,359.055Z"/><g class="h"><rect class="d" width="271.762" height="154.624" rx="3.706" transform="translate(264.119 58.569)"/></g><rect class="i" width="403.795" height="227.495" rx="3.706" transform="translate(202.603 16.705)"/><g class="h"><rect class="j" width="29.186" height="26.27" rx="3.706" transform="translate(341.365 81.454)"/></g><rect class="k" width="78.803" height="2.915" rx="1.458" transform="translate(379.305 81.454)"/><rect class="k" width="65.503" height="2.915" rx="1.458" transform="translate(379.305 90.217)"/><g class="h"><rect class="j" width="29.186" height="26.27" rx="3.706" transform="translate(341.365 122.317)"/></g><rect class="k" width="78.803" height="2.915" rx="1.458" transform="translate(379.305 122.317)"/><rect class="k" width="78.803" height="2.915" rx="1.458" transform="translate(379.305 131.071)"/><g class="h"><rect class="j" width="29.186" height="26.27" rx="3.706" transform="translate(341.365 163.18)"/></g><rect class="k" width="78.803" height="2.915" rx="1.458" transform="translate(379.305 163.18)"/><rect class="k" width="79.33" height="2.915" rx="1.309" transform="translate(379.305 171.934)"/><line class="l" y1="18.117" transform="translate(400 16.47)"/><line class="l" y1="23.775" transform="translate(400 41.283)"/><circle class="j" cx="3.294" cy="3.294" r="3.294" transform="translate(396.706 61.764)"/><circle class="m" cx="3.294" cy="3.294" r="3.294" transform="translate(396.706 34.588)"/><line class="l" y1="18.117" transform="translate(400 16.47)"/><line class="l" y1="23.775" transform="translate(400 41.283)"/><circle class="j" cx="3.294" cy="3.294" r="3.294" transform="translate(396.706 61.764)"/><circle class="m" cx="3.294" cy="3.294" r="3.294" transform="translate(396.706 34.588)"/><line class="l" y2="25.529" transform="translate(400 229.762)"/><line class="l" y2="23.775" transform="translate(400 206.703)"/><circle class="j" cx="3.294" cy="3.294" r="3.294" transform="translate(396.706 203.409)"/><line class="l" x1="25.941" transform="translate(225.826 138.763)"/><line class="l" x1="23.775" transform="translate(250.638 138.763)"/><circle class="j" cx="3.294" cy="3.294" r="3.294" transform="translate(271.119 135.469)"/><g class="f"><rect width="128.469" height="2.471" transform="translate(336.177 358.643)"/></g><g class="c"><path class="n" d="M241.687,466.162H182.064l.824-6.7c16.849-15.128,27.744-55.431,27.744-55.431a5.575,5.575,0,0,0-.716.148c-9.882,1.993-16.915,6.053-21.831,10.936l2.092-17.837c31.129-6.7,43.474-47.879,43.474-47.879-19.863,4.406-32.249,11.225-39.941,17.7l3.063-26.2c21.049,7.222,42.823-31.146,42.823-31.146l-.824-.173.412-.264-.626.222c-23.264-5.015-35.7,8.285-39.735,13.81l.3-2.569q-.922,2.471-1.8,4.842h0v.066q-2.471,6.7-4.521,13.226h0q-1.787,5.575-3.343,11.035v-.049s-.964-23.437-25.677-29.606c0,0,2.594,51.116,22.177,42.749h0c-1.812,7.412-3.294,14.543-4.579,21.469h0q-1.227,6.761-2.141,13.176l-.115.132.115-.1-.049.338h0q-.824,5.822-1.4,11.348c.379-7.1-.914-27.6-25.076-46.875,0,0-32.117,56.444,22.647,67.529l.362.313-.082-.255.494.107.222-2.9a304.2,304.2,0,0,0,.189,36.317h0c.058.824.115,1.647.173,2.429H116.421C93.412,513.654,129.2,539.735,129.2,539.735h98.822C266.4,491.361,241.687,466.162,241.687,466.162Zm-64.235-54.089Z" transform="translate(-94.112 -163.88)"/></g><path class="o" d="M178.7,484.23s-15.647-68.352,18.941-156.469" transform="translate(-94.112 -163.88)"/><path class="j" d="M117.763,463.642H238.821s23.882,30.47-13.176,75.764H130.116S95.528,508.112,117.763,463.642Z" transform="translate(-94.112 -163.88)"/><path class="p" d="M195.907,332.29s12.032-21.411,40.855-14.823c0,0-23.824,40.567-45.294,27.283Z" transform="translate(-94.112 -163.88)"/><path class="p" d="M188.281,355.011s-.931-21.9-24.813-27.662c0,0,2.471,47.764,21.412,39.941Z" transform="translate(-94.112 -163.88)"/><path class="p" d="M180.474,387.351S184.88,364.407,231,354.525c0,0-14.708,47.451-52.648,45.549Z" transform="translate(-94.112 -163.88)"/><path class="p" d="M176.736,413.1s4.851-23.989-23.973-46.224c0,0-31.294,53.257,22.63,63.271Z" transform="translate(-94.112 -163.88)"/><path class="p" d="M175.871,446.076s-3.343-33.9,32.891-40.492c0,0-13.234,47.344-32.941,55.785Z" transform="translate(-94.112 -163.88)"/><path class="q" d="M191.88,345.055s31.294-23.882,44.47-28" transform="translate(-94.112 -163.88)"/><path class="q" d="M178.292,399.819S216.174,359.466,231,354.525" transform="translate(-94.112 -163.88)"/><path class="q" d="M163.469,327.349s23.059,31.294,21.412,39.529" transform="translate(-94.112 -163.88)"/><path class="q" d="M152.763,366.878s12.353,56,22.235,63.411" transform="translate(-94.112 -163.88)"/><path class="q" d="M175.821,461.583s19.764-54.352,32.941-56" transform="translate(-94.112 -163.88)"/><g class="f"><path d="M238.821,463.642H117.763c-.272.552-.535,1.1-.824,1.647H234.7s23.3,29.737-11.859,74.117h2.8C262.7,494.112,238.821,463.642,238.821,463.642Z" transform="translate(-94.112 -163.88)"/></g><rect class="k" width="800" height="27.119" transform="translate(0 375.196)"/><rect class="k" width="732.2" height="11.093" transform="translate(33.896 402.314)"/><rect class="r" width="732.2" height="3.698" transform="translate(33.896 402.314)"/><line class="l" x2="4.941" transform="translate(568.41 138.763)"/><line class="l" x2="36.96" transform="translate(524.763 138.763)"/><circle class="j" cx="3.294" cy="3.294" r="3.294" transform="translate(521.469 135.469)"/><circle class="m" cx="3.294" cy="3.294" r="3.294" transform="translate(561.822 135.469)"/><g class="c"><path class="s" d="M845.755,530.248l.082-.124q.255-.4.5-.824l.091-.156q.239-.4.453-.824l.074-.14c.165-.321.321-.642.461-.98h0a19.593,19.593,0,0,0,.774-2.067l.082-.272c.074-.255.148-.511.214-.766l.082-.362q.082-.346.148-.7a2.235,2.235,0,0,1,.074-.4c.025-.132.074-.461.107-.7a1.81,1.81,0,0,1,.049-.4,4.369,4.369,0,0,0,.066-.758V451.289H837.61V417.953h-14v33.336h-9.652V403.409h-14v47.879H794.7V396.566h-14v54.723H768.344v68.023a20.352,20.352,0,0,0,20.588,20.094h39.529a20.745,20.745,0,0,0,16.668-8.285h0Q845.434,530.684,845.755,530.248Z" transform="translate(-94.112 -163.88)"/></g><rect class="g" width="13.176" height="82.352" transform="translate(688.232 264.35)"/><rect class="t" width="13.176" height="27.176" transform="translate(688.232 237.174)"/><rect class="g" width="13.176" height="82.352" transform="translate(706.349 270.938)"/><rect class="u" width="13.176" height="27.176" transform="translate(706.349 243.762)"/><rect class="g" width="13.176" height="82.352" transform="translate(728.584 284.938)"/><rect class="v" width="13.176" height="27.176" transform="translate(728.584 257.762)"/><path class="j" d="M676.7,289.879h75.764v65.47A19.353,19.353,0,0,1,733.114,374.7H696.055A19.353,19.353,0,0,1,676.7,355.349Z"/><g class="f"><path d="M770.814,453.759v3.294h72.47v65.47a19.262,19.262,0,0,1-4.118,11.933,19.311,19.311,0,0,0,7.412-15.227v-65.47Z" transform="translate(-94.112 -163.88)"/></g></g></g></svg>